<svg width="32" height="32" viewBox="0 0 32 32" fill="none" xmlns="http://www.w3.org/2000/svg">
    <path d="M0 5C0 2.23858 2.23858 0 5 0H27C29.7614 0 32 2.23858 32 5V27C32 29.7614 29.7614 32 27 32H5C2.23858 32 0 29.7614 0 27V5Z" fill="black" fill-opacity="0.2"/>
    <path d="M20.0455 16.7835L12.8871 20.937C12.2796 21.2892 11.5 20.8628 11.5 20.1529V11.8459C11.5 11.1372 12.2785 10.7097 12.8871 11.0629L20.0455 15.2164C20.1837 15.2953 20.2986 15.4093 20.3785 15.5469C20.4584 15.6846 20.5004 15.8409 20.5004 16C20.5004 16.1591 20.4584 16.3154 20.3785 16.453C20.2986 16.5906 20.1837 16.7047 20.0455 16.7835Z" fill="white"/>
</svg>
