<svg width="32" height="32" viewBox="0 0 32 32" fill="none" xmlns="http://www.w3.org/2000/svg">
    <path d="M32 5C32 2.23858 29.7614 0 27 0H5C2.23858 0 0 2.23858 0 5V27C0 29.7614 2.23858 32 5 32H27C29.7614 32 32 29.7614 32 27V5Z" fill="black" fill-opacity="0.2"/>
    <path d="M11.9545 16.7835L19.1129 20.937C19.7204 21.2892 20.5 20.8628 20.5 20.1529V11.8459C20.5 11.1372 19.7215 10.7097 19.1129 11.0629L11.9545 15.2164C11.8163 15.2953 11.7014 15.4093 11.6215 15.5469C11.5416 15.6846 11.4996 15.8409 11.4996 16C11.4996 16.1591 11.5416 16.3154 11.6215 16.453C11.7014 16.5906 11.8163 16.7047 11.9545 16.7835Z" fill="white"/>
</svg>
