<svg width="32" height="32" viewBox="0 0 32 32" fill="none" xmlns="http://www.w3.org/2000/svg">
    <path d="M27 -2.18557e-07C29.7614 -9.78513e-08 32 2.23858 32 5L32 27C32 29.7614 29.7614 32 27 32L5.08584e-07 32L1.90735e-06 -1.39876e-06L27 -2.18557e-07Z" fill="#2E3031"/>
    <path d="M21.7359 13.2677C21.5667 13.0963 21.3373 13 21.098 13C20.8588 13 20.6294 13.0963 20.4602 13.2677L15.9946 17.7932L11.5289 13.2677C11.3587 13.1011 11.1309 13.009 10.8943 13.0111C10.6578 13.0132 10.4315 13.1093 10.2642 13.2788C10.097 13.4483 10.0021 13.6776 10 13.9173C9.99798 14.1571 10.0889 14.388 10.2532 14.5604L15.3567 19.7323C15.5259 19.9037 15.7553 20 15.9946 20C16.2338 20 16.4632 19.9037 16.6324 19.7323L21.7359 14.5604C21.905 14.389 22 14.1565 22 13.9141C22 13.6716 21.905 13.4391 21.7359 13.2677Z" fill="white"/>
</svg>
