<svg preserveAspectRatio="xMidYMid meet" width="100%" viewBox="0 0 173 50" fill="none" xmlns="http://www.w3.org/2000/svg">
    <g clip-path="url(#clip0_111_2606)">
        <rect width="50" height="50" rx="25" fill="#33CC66"/>
        <path d="M25 49C38.2548 49 49 38.2548 49 25C49 11.7452 38.2548 1 25 1C11.7452 1 1 11.7452 1 25C1 38.2548 11.7452 49 25 49Z" stroke="#252728" stroke-width="2"/>
        <path fill-rule="evenodd" clip-rule="evenodd" d="M14.1077 23.8889H20.0154C21.0492 23.8889 22.0092 23.4444 22.7477 22.7778C23.4123 22.1111 23.8554 21.1481 23.8554 20.037V14.1111V13H24.9631H35.8923H37V14.1111V25V26.1111H35.8923H29.9846C28.9508 26.1111 27.9908 26.5556 27.2523 27.2222C26.5877 27.8889 26.1446 28.8519 26.1446 29.963V35.8889V37H25.0369H14.1077H13V35.963V25.0741V23.963V23.8889H14.1077ZM20.0154 26.1852H15.2154V34.8519H23.8554V30.037C23.8554 28.3333 24.52 26.8519 25.6277 25.7407C26.7354 24.6296 28.2862 23.963 29.9108 23.963H34.7108V15.2222H26.1446V20.037C26.1446 21.7407 25.48 23.2222 24.3723 24.3333C23.2646 25.5185 21.7138 26.1852 20.0154 26.1852Z" fill="white"/>
    </g>
    <circle cx="64" cy="25" r="2" fill="#59E970"/>
    <path d="M90.8168 20.4929C90.7372 19.6908 90.3958 19.0677 89.7926 18.6236C89.1894 18.1794 88.3707 17.9574 87.3366 17.9574C86.634 17.9574 86.0407 18.0568 85.5568 18.2557C85.0729 18.4479 84.7017 18.7164 84.4432 19.0611C84.1913 19.4058 84.0653 19.7969 84.0653 20.2344C84.0521 20.599 84.1283 20.9171 84.294 21.1889C84.4664 21.4607 84.7017 21.696 85 21.8949C85.2983 22.0871 85.643 22.2562 86.0341 22.402C86.4252 22.5412 86.8428 22.6605 87.2869 22.7599L89.1165 23.1974C90.0047 23.3963 90.8201 23.6615 91.5625 23.9929C92.3049 24.3243 92.9479 24.732 93.4915 25.2159C94.035 25.6998 94.456 26.2699 94.7543 26.9261C95.0592 27.5824 95.215 28.3348 95.2216 29.1832C95.215 30.4295 94.8968 31.5099 94.267 32.4247C93.6439 33.3329 92.7424 34.0388 91.5625 34.5426C90.3892 35.0398 88.974 35.2884 87.3168 35.2884C85.6728 35.2884 84.241 35.0365 83.0213 34.5327C81.8082 34.0289 80.8603 33.2831 80.1776 32.2955C79.5014 31.3011 79.1468 30.0715 79.1136 28.6065H83.2798C83.3262 29.2893 83.5218 29.8594 83.8665 30.3168C84.2178 30.7675 84.6851 31.1089 85.2685 31.3409C85.8584 31.5663 86.5246 31.679 87.267 31.679C87.9962 31.679 88.6293 31.5729 89.1662 31.3608C89.7098 31.1487 90.1307 30.8537 90.429 30.4759C90.7273 30.098 90.8764 29.6638 90.8764 29.1733C90.8764 28.7159 90.7405 28.3314 90.4688 28.0199C90.2036 27.7083 89.8125 27.4432 89.2955 27.2244C88.785 27.0057 88.1586 26.8068 87.4162 26.6278L85.1989 26.071C83.482 25.6534 82.1264 25.0005 81.1321 24.1122C80.1378 23.224 79.6439 22.0275 79.6506 20.5227C79.6439 19.2898 79.9721 18.2126 80.6349 17.2912C81.3045 16.3698 82.2225 15.6506 83.3892 15.1335C84.5559 14.6165 85.8816 14.358 87.3665 14.358C88.8778 14.358 90.197 14.6165 91.3239 15.1335C92.4574 15.6506 93.339 16.3698 93.9688 17.2912C94.5985 18.2126 94.9233 19.2798 94.9432 20.4929H90.8168ZM98.038 40.7273V19.7273H102.214V22.2926H102.403C102.589 21.8816 102.857 21.464 103.208 21.0398C103.566 20.6089 104.03 20.2509 104.6 19.9659C105.177 19.6742 105.893 19.5284 106.748 19.5284C107.862 19.5284 108.889 19.8201 109.831 20.4034C110.772 20.9801 111.524 21.8518 112.088 23.0185C112.651 24.1785 112.933 25.6335 112.933 27.3835C112.933 29.0871 112.658 30.5256 112.108 31.6989C111.564 32.8655 110.822 33.7505 109.88 34.3537C108.946 34.9503 107.898 35.2486 106.738 35.2486C105.916 35.2486 105.217 35.1127 104.64 34.8409C104.07 34.5691 103.603 34.2277 103.238 33.8168C102.874 33.3991 102.595 32.9782 102.403 32.554H102.274V40.7273H98.038ZM102.184 27.3636C102.184 28.2718 102.31 29.0639 102.562 29.7401C102.814 30.4162 103.179 30.9432 103.656 31.321C104.133 31.6922 104.713 31.8778 105.396 31.8778C106.085 31.8778 106.669 31.6889 107.146 31.3111C107.623 30.9266 107.984 30.3963 108.23 29.7202C108.482 29.0374 108.608 28.2519 108.608 27.3636C108.608 26.482 108.485 25.7064 108.24 25.0369C107.994 24.3674 107.633 23.8437 107.156 23.4659C106.679 23.0881 106.092 22.8991 105.396 22.8991C104.707 22.8991 104.123 23.0814 103.646 23.446C103.175 23.8106 102.814 24.3277 102.562 24.9972C102.31 25.6667 102.184 26.4555 102.184 27.3636ZM120.112 35.2884C119.137 35.2884 118.269 35.1193 117.507 34.7812C116.744 34.4366 116.141 33.9295 115.697 33.2599C115.26 32.5838 115.041 31.742 115.041 30.7344C115.041 29.8859 115.197 29.1733 115.508 28.5966C115.82 28.0199 116.244 27.5559 116.781 27.2045C117.318 26.8532 117.928 26.5881 118.61 26.4091C119.3 26.2301 120.022 26.1042 120.778 26.0312C121.666 25.9384 122.382 25.8523 122.926 25.7727C123.469 25.6866 123.864 25.5606 124.109 25.3949C124.354 25.2292 124.477 24.9839 124.477 24.6591V24.5994C124.477 23.9697 124.278 23.4825 123.88 23.1378C123.489 22.7931 122.932 22.6207 122.21 22.6207C121.448 22.6207 120.841 22.7898 120.39 23.1278C119.94 23.4593 119.641 23.8769 119.495 24.3807L115.578 24.0625C115.777 23.1345 116.168 22.3324 116.751 21.6562C117.334 20.9735 118.087 20.4498 119.008 20.0852C119.936 19.714 121.01 19.5284 122.23 19.5284C123.078 19.5284 123.89 19.6278 124.666 19.8267C125.448 20.0256 126.141 20.3338 126.744 20.7514C127.354 21.169 127.834 21.706 128.186 22.3622C128.537 23.0118 128.713 23.7907 128.713 24.6989V35H124.696V32.8821H124.576C124.331 33.3594 124.003 33.7803 123.592 34.1449C123.181 34.5028 122.687 34.7846 122.11 34.9901C121.534 35.1889 120.868 35.2884 120.112 35.2884ZM121.325 32.3651C121.948 32.3651 122.498 32.2424 122.975 31.9972C123.453 31.7453 123.827 31.4072 124.099 30.983C124.371 30.5587 124.507 30.0781 124.507 29.5412V27.9205C124.374 28.0066 124.192 28.0862 123.96 28.1591C123.734 28.2254 123.479 28.2884 123.194 28.348C122.909 28.401 122.624 28.4508 122.339 28.4972C122.054 28.5369 121.796 28.5734 121.564 28.6065C121.066 28.6795 120.632 28.7955 120.261 28.9545C119.89 29.1136 119.601 29.3291 119.396 29.6009C119.19 29.866 119.088 30.1974 119.088 30.5952C119.088 31.1719 119.297 31.6127 119.714 31.9176C120.138 32.2159 120.675 32.3651 121.325 32.3651ZM140.123 19.7273V22.9091H130.925V19.7273H140.123ZM133.013 16.0682H137.249V30.3068C137.249 30.6979 137.309 31.0028 137.428 31.2216C137.547 31.4337 137.713 31.5829 137.925 31.669C138.144 31.7552 138.396 31.7983 138.681 31.7983C138.88 31.7983 139.078 31.7817 139.277 31.7486C139.476 31.7088 139.629 31.679 139.735 31.6591L140.401 34.8111C140.189 34.8774 139.891 34.9536 139.506 35.0398C139.122 35.1326 138.654 35.1889 138.104 35.2088C137.083 35.2486 136.188 35.1127 135.419 34.8011C134.657 34.4896 134.064 34.0057 133.64 33.3494C133.215 32.6932 133.007 31.8646 133.013 30.8636V16.0682ZM142.882 35V19.7273H147.118V35H142.882ZM145.01 17.7585C144.38 17.7585 143.84 17.5497 143.389 17.1321C142.945 16.7079 142.723 16.2008 142.723 15.6108C142.723 15.0275 142.945 14.527 143.389 14.1094C143.84 13.6851 144.38 13.473 145.01 13.473C145.639 13.473 146.176 13.6851 146.62 14.1094C147.071 14.527 147.297 15.0275 147.297 15.6108C147.297 16.2008 147.071 16.7079 146.62 17.1321C146.176 17.5497 145.639 17.7585 145.01 17.7585ZM154.866 35.2884C153.891 35.2884 153.023 35.1193 152.261 34.7812C151.498 34.4366 150.895 33.9295 150.451 33.2599C150.013 32.5838 149.795 31.742 149.795 30.7344C149.795 29.8859 149.951 29.1733 150.262 28.5966C150.574 28.0199 150.998 27.5559 151.535 27.2045C152.072 26.8532 152.682 26.5881 153.364 26.4091C154.054 26.2301 154.776 26.1042 155.532 26.0312C156.42 25.9384 157.136 25.8523 157.68 25.7727C158.223 25.6866 158.618 25.5606 158.863 25.3949C159.108 25.2292 159.231 24.9839 159.231 24.6591V24.5994C159.231 23.9697 159.032 23.4825 158.634 23.1378C158.243 22.7931 157.686 22.6207 156.964 22.6207C156.201 22.6207 155.595 22.7898 155.144 23.1278C154.693 23.4593 154.395 23.8769 154.249 24.3807L150.332 24.0625C150.531 23.1345 150.922 22.3324 151.505 21.6562C152.088 20.9735 152.841 20.4498 153.762 20.0852C154.69 19.714 155.764 19.5284 156.984 19.5284C157.832 19.5284 158.644 19.6278 159.42 19.8267C160.202 20.0256 160.895 20.3338 161.498 20.7514C162.108 21.169 162.588 21.706 162.94 22.3622C163.291 23.0118 163.467 23.7907 163.467 24.6989V35H159.45V32.8821H159.33C159.085 33.3594 158.757 33.7803 158.346 34.1449C157.935 34.5028 157.441 34.7846 156.864 34.9901C156.288 35.1889 155.621 35.2884 154.866 35.2884ZM156.079 32.3651C156.702 32.3651 157.252 32.2424 157.729 31.9972C158.207 31.7453 158.581 31.4072 158.853 30.983C159.125 30.5587 159.261 30.0781 159.261 29.5412V27.9205C159.128 28.0066 158.946 28.0862 158.714 28.1591C158.488 28.2254 158.233 28.2884 157.948 28.348C157.663 28.401 157.378 28.4508 157.093 28.4972C156.808 28.5369 156.549 28.5734 156.317 28.6065C155.82 28.6795 155.386 28.7955 155.015 28.9545C154.644 29.1136 154.355 29.3291 154.15 29.6009C153.944 29.866 153.842 30.1974 153.842 30.5952C153.842 31.1719 154.05 31.6127 154.468 31.9176C154.892 32.2159 155.429 32.3651 156.079 32.3651ZM170.989 14.6364V35H166.753V14.6364H170.989Z" fill="white"/>
    <defs>
        <clipPath id="clip0_111_2606">
            <rect width="50" height="50" rx="25" fill="white"/>
        </clipPath>
    </defs>
</svg>
