<svg width="16" height="16" viewBox="0 0 16 16" fill="none" xmlns="http://www.w3.org/2000/svg">
    <path d="M11.6287 7.88264C12.4744 7.88264 13.3824 6.75895 13.3824 5.60464C13.3824 4.45014 12.5973 3.70215 11.6287 3.70215C10.6602 3.70215 9.87505 4.45004 9.87505 5.60464C9.87505 6.75913 10.7556 7.88264 11.6287 7.88264Z" fill="#59E970"/>
    <path d="M6.16973 8.32635C7.46651 8.32635 8.8589 6.6029 8.8589 4.8328C8.8589 3.06238 7.6551 1.91553 6.16973 1.91553C4.68464 1.91553 3.48055 3.06256 3.48055 4.8328C3.48055 6.60294 4.83053 8.32635 6.16973 8.32635Z" fill="#59E970"/>
    <path d="M10.9804 11.34C10.6553 10.6956 10.4185 10.3711 9.97723 9.9124C9.59577 9.51588 8.4573 8.95715 7.72243 9.20293C7.13635 9.33128 7.10859 9.66881 6.16978 9.66881C5.23097 9.66881 5.20306 9.33128 4.6167 9.20293C3.88183 8.95714 2.7435 9.51587 2.3619 9.9124C1.92049 10.3711 1.68366 10.6959 1.35886 11.34C1.19583 11.663 0.856225 12.6053 1.06692 13.0107C1.33358 13.5237 1.98268 13.736 3.7666 13.954C4.83515 14.0847 6.16978 14.0847 6.16978 14.0847C6.16978 14.0847 7.50402 14.0847 8.57271 13.954C10.3567 13.736 11.0053 13.5237 11.2724 13.0107C11.4834 12.6053 11.1435 11.663 10.9805 11.34H10.9804Z" fill="#59E970"/>
    <path d="M14.766 9.84767C14.5545 9.42737 14.3998 9.216 14.112 8.9166C13.8631 8.65796 13.1208 8.29364 12.6417 8.4539C12.259 8.53762 12.2414 8.75771 11.6291 8.75771C11.0169 8.75771 10.9988 8.53762 10.6165 8.4539C10.2313 8.32513 9.67671 8.53528 9.34427 8.75689C9.80145 8.9452 10.2076 9.20675 10.4494 9.45805C10.9518 9.98017 11.2228 10.3658 11.5658 11.0451C11.6321 11.1768 11.7216 11.3897 11.8019 11.6359C12.0898 11.6313 12.6881 11.6145 13.1956 11.5523C14.3591 11.4101 14.7824 11.2717 14.9562 10.937C15.094 10.6727 14.8725 10.0582 14.766 9.84763L14.766 9.84767Z" fill="#59E970"/>
</svg>
