<svg width="32" height="32" viewBox="0 0 32 32" fill="none" xmlns="http://www.w3.org/2000/svg">
    <path d="M16 29.3337C8.636 29.3337 2.66667 23.3643 2.66667 16.0003C2.66667 8.63633 8.636 2.66699 16 2.66699C23.364 2.66699 29.3333 8.63633 29.3333 16.0003C29.3333 23.3643 23.364 29.3337 16 29.3337ZM9.33334 16.0003C9.33334 17.7684 10.0357 19.4641 11.286 20.7144C12.5362 21.9646 14.2319 22.667 16 22.667C17.7681 22.667 19.4638 21.9646 20.714 20.7144C21.9643 19.4641 22.6667 17.7684 22.6667 16.0003H20C20 17.0612 19.5786 18.0786 18.8284 18.8288C18.0783 19.5789 17.0609 20.0003 16 20.0003C14.9391 20.0003 13.9217 19.5789 13.1716 18.8288C12.4214 18.0786 12 17.0612 12 16.0003H9.33334Z" fill="#59E970"/>
</svg>
